<?xml version="1.0" encoding="UTF-8"?>
<svg viewBox="0 0 17 16" xmlns="http://www.w3.org/2000/svg">
<path d="m15.706 8.167c0-0.52-0.0467-1.02-0.1333-1.5h-6.9067v2.84h3.9467c-0.1734 0.91331-0.6934 1.6867-1.4734 2.2067v1.8466h2.38c1.3867-1.28 2.1867-3.16 2.1867-5.3933z" fill="#4285F4"/>
<path d="m8.6658 15.334c1.98 0 3.64-0.6533 4.8533-1.7733l-2.38-1.8467c-0.6533 0.44-1.4866 0.7067-2.4733 0.7067-1.9067 0-3.5267-1.2867-4.1067-3.02h-2.44v1.8933c1.2067 2.3934 3.68 4.04 6.5467 4.04z" fill="#34A853"/>
<path d="m4.5597 9.3929c-0.14666-0.44-0.23333-0.90667-0.23333-1.3933 0-0.48667 0.08667-0.95334 0.23333-1.3933v-1.8933h-2.44c-0.5 0.98667-0.78666 2.1-0.78666 3.2867 0 1.1867 0.28666 2.3 0.78666 3.2866l1.9-1.48 0.54-0.41333z" fill="#FBBC05"/>
<path d="m8.6658 3.587c1.08 0 2.04 0.37334 2.8067 1.0933l2.1-2.1c-1.2734-1.1867-2.9267-1.9133-4.9067-1.9133-2.8667 0-5.34 1.6467-6.5467 4.0467l2.44 1.8933c0.58-1.7333 2.2-3.02 4.1067-3.02z" fill="#EA4335"/>
</svg>
